<?xml version="1.0" encoding="UTF-8" standalone="no"?>
<svg
   xmlns:dc="http://purl.org/dc/elements/1.1/"
   xmlns:cc="http://creativecommons.org/ns#"
   xmlns:rdf="http://www.w3.org/1999/02/22-rdf-syntax-ns#"
   xmlns:svg="http://www.w3.org/2000/svg"
   xmlns="http://www.w3.org/2000/svg"
   xmlns:xlink="http://www.w3.org/1999/xlink"
   version="1.1"
   id="svg3363"
   viewBox="0 0 533.99998 256"
   height="256"
   width="534">
  <title
     id="title7317">pyautoupdate_logo</title>
  <defs
     id="defs3365">
    <linearGradient
       id="linearGradient4671">
      <stop
         style="stop-color:#ffd43b;stop-opacity:1;"
         offset="0"
         id="stop4673" />
      <stop
         style="stop-color:#ffe873;stop-opacity:1"
         offset="1"
         id="stop4675" />
    </linearGradient>
    <linearGradient
       id="linearGradient4689">
      <stop
         style="stop-color:#5a9fd4;stop-opacity:1;"
         offset="0"
         id="stop4691" />
      <stop
         style="stop-color:#306998;stop-opacity:1;"
         offset="1"
         id="stop4693" />
    </linearGradient>
    <linearGradient
       xlink:href="#linearGradient4671"
       id="linearGradient1475"
       gradientUnits="userSpaceOnUse"
       gradientTransform="matrix(0.562541,0,0,0.567972,-14.99112,-11.70237)"
       x1="150.96111"
       y1="192.35176"
       x2="112.03144"
       y2="137.27299" />
    <linearGradient
       xlink:href="#linearGradient4689"
       id="linearGradient1478"
       gradientUnits="userSpaceOnUse"
       gradientTransform="matrix(0.562541,0,0,0.567972,-14.99112,-11.70237)"
       x1="26.648937"
       y1="20.603781"
       x2="135.66525"
       y2="114.39767" />
  </defs>
  <metadata
     id="metadata3368">
    <rdf:RDF>
      <cc:Work
         rdf:about="">
        <dc:format>image/svg+xml</dc:format>
        <dc:type
           rdf:resource="http://purl.org/dc/dcmitype/StillImage" />
        <dc:title>pyautoupdate_logo</dc:title>
        <dc:creator>
          <cc:Agent>
            <dc:title>Ryan Lee</dc:title>
          </cc:Agent>
        </dc:creator>
        <dc:subject>
          <rdf:Bag>
            <rdf:li>python</rdf:li>
            <rdf:li>pyautoupdate</rdf:li>
          </rdf:Bag>
        </dc:subject>
      </cc:Work>
    </rdf:RDF>
  </metadata>
  <g
     transform="translate(0,-796.36216)"
     id="layer1">
    <g
       id="g4267">
      <path
         style="opacity:0;fill:#ff0000;fill-opacity:1"
         d="m 304.8517,924.34825 a 70.400141,70.400198 0 0 1 70.40014,-70.4002 70.400141,70.400198 0 0 1 70.40014,70.4002"
         id="path4201" />
      <path
         id="path4207"
         d="m 445.65198,924.34825 a 70.400141,70.400198 0 0 1 -70.40014,70.4002 70.400141,70.400198 0 0 1 -70.40014,-70.4002"
         style="opacity:0;fill:#0000ff;fill-opacity:1" />
    </g>
    <g
       transform="translate(25.696261,-1.288923)"
       id="g4331">
      <g
         id="g4259">
        <g
           id="text4193"
           style="font-style:normal;font-weight:normal;font-size:45px;line-height:0%;font-family:sans-serif;letter-spacing:0px;word-spacing:0px;fill:#000000;fill-opacity:1;stroke:none;stroke-width:1px;stroke-linecap:butt;stroke-linejoin:miter;stroke-opacity:1"
           transform="matrix(1.1000022,0,0,1.1000031,-36.148979,-92.45299)">
          <path
             id="path3368"
             style="font-style:normal;font-variant:normal;font-weight:normal;font-stretch:normal;font-size:50px;line-height:0%;font-family:Ubuntu;-inkscape-font-specification:Ubuntu;fill:#4dda5f;fill-opacity:1"
             d="m 320.98602,874.40414 q 1.12149,-1.21027 1.93443,-2.16113 0.81025,-1.02152 1.24128,-1.78093 l -5.68461,-5.26761 q -0.52322,0.19683 -1.41489,0.9384 -0.89436,0.67091 -1.98187,1.84451 -0.71367,0.77017 -1.41928,1.75232 -0.67162,0.94548 -0.98456,2.01882 -0.31563,1.00269 -0.13395,2.0572 0.145,1.02053 1.13522,1.93811 1.83375,1.69923 3.65475,1.20532 1.78433,-0.52789 3.65348,-2.54501 z m -17.3624,-15.5434 q 1.90314,-2.0538 3.74468,-2.93768 1.83884,-0.95454 3.61071,-0.88048 1.76918,0.003 3.466,0.89408 1.66014,0.8567 3.27384,2.35202 l 11.91935,11.04498 q -0.33447,0.50806 -0.93543,1.45085 -0.60365,0.87213 -1.41121,1.9643 -0.80755,1.09218 -1.82171,2.33375 -0.9435,1.23887 -1.99702,2.3758 -1.49532,1.61369 -3.08282,2.66481 -1.5875,1.05111 -3.20191,1.39562 -1.65108,0.31054 -3.33445,-0.22685 -1.68336,-0.53738 -3.33373,-2.06668 -1.57703,-1.46134 -2.13621,-3.13833 -0.5252,-1.71367 -0.20249,-3.45963 0.32271,-1.74595 1.35202,-3.51881 1.02931,-1.77286 2.52463,-3.38655 0.47578,-0.51345 1.0589,-0.99561 0.54644,-0.51614 1.09827,-0.89096 0.54913,-0.44548 0.96233,-0.74426 0.41319,-0.29878 0.5858,-0.41149 l -0.95354,-0.8836 q -0.84353,-0.78165 -1.8203,-1.34593 -1.01344,-0.59827 -2.07872,-0.69923 -1.10195,-0.13495 -2.25034,0.36873 -1.15108,0.43301 -2.37453,1.75331 -1.56329,1.68705 -2.49602,3.20856 -0.93543,1.45086 -1.25644,2.31222 l -3.1978,-2.21338 q 0.31832,-0.93203 1.48895,-2.71027 1.13395,-1.81222 2.79919,-3.60929 z" />
          <path
             id="path3370"
             style="font-style:normal;font-variant:normal;font-weight:normal;font-stretch:normal;font-size:50px;line-height:0%;font-family:Ubuntu;-inkscape-font-specification:Ubuntu;fill:#4dda5f;fill-opacity:1"
             d="m 354.18097,855.58517 q -1.27503,1.04609 -3.47771,2.58661 -2.15748,1.51913 -5.27577,2.99519 -2.71156,1.28353 -4.92813,1.39234 -2.23795,0.0636 -4.05232,-0.84774 -1.81437,-0.91136 -3.23135,-2.61933 -1.43838,-1.75316 -2.57216,-4.14837 l -6.24653,-13.19625 4.20291,-1.98947 5.81869,12.29239 q 2.03226,4.2933 4.26512,5.50443 2.23285,1.21113 5.44153,-0.30772 0.67789,-0.32088 1.37958,-0.70835 0.70169,-0.38746 1.31299,-0.73215 0.58992,-0.38987 1.06564,-0.67038 0.49953,-0.34709 0.68271,-0.54444 l -9.39118,-19.83956 4.20291,-1.98948 10.80307,22.82228 z" />
          <path
             id="path3372"
             style="font-style:normal;font-variant:normal;font-weight:normal;font-stretch:normal;font-size:50px;line-height:0%;font-family:Ubuntu;-inkscape-font-specification:Ubuntu;fill:#4dda5f;fill-opacity:1"
             d="m 365.10898,828.46279 9.81262,-0.85741 0.33948,3.8852 -9.81261,0.85741 1.04456,11.95445 q 0.16974,1.9426 0.58176,3.21155 0.40767,1.21914 1.07068,1.91407 0.65865,0.64511 1.58135,0.86563 0.9227,0.22052 2.11814,0.11606 2.09203,-0.1828 3.29812,-0.7399 1.25154,-0.61126 1.73223,-0.85402 l 1.23172,3.75704 q -0.66688,0.40961 -2.36672,1.06004 -1.69548,0.70024 -3.93694,0.8961 -2.63994,0.23067 -4.43988,-0.26453 -1.75448,-0.54936 -2.918,-1.80284 -1.16353,-1.25347 -1.78156,-3.1569 -0.57258,-1.95759 -0.7989,-4.54772 l -2.01948,-23.11194 4.56271,-1.20173 0.70072,8.01944 z" />
          <path
             id="path3374"
             style="font-style:normal;font-variant:normal;font-weight:normal;font-stretch:normal;font-size:50px;line-height:0%;font-family:Ubuntu;-inkscape-font-specification:Ubuntu;fill:#4dda5f;fill-opacity:1"
             d="m 411.01537,847.99947 q -0.894,2.9683 -2.47673,5.10253 -1.58274,2.13424 -3.68173,3.38192 -2.05112,1.26211 -4.49391,1.57075 -2.42838,0.26077 -4.96579,-0.50346 -2.53741,-0.76423 -4.41785,-2.32274 -1.86602,-1.60638 -2.92682,-3.80575 -1.01292,-2.18494 -1.15372,-4.83828 -0.14079,-2.65333 0.75321,-5.62162 0.87958,-2.92042 2.46231,-5.05465 1.59716,-2.18212 3.64827,-3.44422 2.099,-1.24769 4.52737,-1.50845 2.4428,-0.30864 4.98021,0.45558 2.53741,0.76423 4.40343,2.37062 1.88044,1.5585 2.89336,3.74345 1.0608,2.19936 1.18718,4.90057 0.14079,2.65334 -0.73879,5.57375 z m -4.64394,-1.39868 q 1.2689,-4.21306 0.0893,-7.23149 -1.11734,-3.05189 -4.37289,-4.03241 -3.25555,-0.98052 -5.92038,0.93224 -2.60254,1.87931 -3.87145,6.09237 -1.2689,4.21306 -0.15156,7.26495 1.17964,3.01844 4.43519,3.99895 3.25555,0.98052 5.85809,-0.89878 2.66483,-1.91277 3.93374,-6.12583 z" />
          <path
             id="path3376"
             style="font-style:normal;font-variant:normal;font-weight:normal;font-stretch:normal;font-size:50px;line-height:0%;font-family:Ubuntu;-inkscape-font-specification:Ubuntu;fill:#4dda5f;fill-opacity:1"
             d="m 423.39768,850.96066 9.82438,7.48359 -2.63592,3.4604 -9.82438,-7.48358 2.63592,-3.46041 z" />
          <path
             id="path3378"
             style="font-style:normal;font-variant:normal;font-weight:normal;font-stretch:normal;font-size:50px;line-height:0%;font-family:Ubuntu;-inkscape-font-specification:Ubuntu;fill:#4dda5f;fill-opacity:1"
             d="m 440.64959,857.72782 3.82233,-1.37925 6.28519,22.60041 -3.13046,2.49003 -20.60705,-11.20856 2.20381,-3.41405 16.76257,9.34713 -5.33639,-18.43571 z" />
        </g>
        <g
           id="text4197"
           style="font-style:normal;font-weight:normal;font-size:45px;line-height:125%;font-family:sans-serif;letter-spacing:0px;word-spacing:0px;fill:#4dda5f;fill-opacity:1;stroke:none;stroke-width:1px;stroke-linecap:butt;stroke-linejoin:miter;stroke-opacity:1"
           transform="matrix(1.1000022,0,0,1.1000031,-36.148979,-92.45299)">
          <path
             id="path3381"
             style="font-style:normal;font-variant:normal;font-weight:normal;font-stretch:normal;font-size:50px;font-family:Ubuntu;-inkscape-font-specification:Ubuntu;word-spacing:0px"
             d="m 440.29464,955.03843 q 0.0845,-1.64708 0.4277,-4.31301 0.3286,-2.61812 1.33574,-5.91784 0.87576,-2.86933 2.28718,-4.5819 1.45924,-1.69797 3.35445,-2.42645 1.89521,-0.72847 4.11212,-0.62688 2.26473,0.11619 4.7993,0.88978 l 13.96405,4.26208 -1.35744,4.44745 -13.00761,-3.97015 q -4.5431,-1.38664 -6.94169,-0.55042 -2.39859,0.83622 -3.43491,4.23159 -0.21895,0.71733 -0.40466,1.49708 -0.18572,0.77975 -0.34224,1.46386 -0.10871,0.6987 -0.22144,1.23934 -0.0795,0.60306 -0.0568,0.87136 l 20.9939,6.40771 -1.35744,4.44746 -24.15016,-7.37106 z" />
          <path
             id="path3383"
             style="font-style:normal;font-variant:normal;font-weight:normal;font-stretch:normal;font-size:50px;font-family:Ubuntu;-inkscape-font-specification:Ubuntu;word-spacing:0px"
             d="m 436.40866,986.38054 q 3.84548,2.43203 7.11878,1.83996 3.27329,-0.59206 5.27771,-3.76142 1.12247,-1.77484 1.63711,-2.86921 0.48791,-1.05212 0.69303,-1.75063 l -13.86066,-8.76597 q -1.04594,0.34423 -2.45051,1.34906 -1.40458,1.00483 -2.42014,2.61064 -1.06902,1.69032 -1.22573,3.2477 -0.14116,1.62637 0.43423,3.05516 0.61765,1.45551 1.84062,2.70224 1.26523,1.27345 2.95556,2.34247 z m -2.59238,4.09904 q -2.49322,-1.5768 -4.17852,-3.58921 -1.71202,-1.97015 -2.43155,-4.20001 -0.71953,-2.22986 -0.38877,-4.62372 0.30404,-2.35161 1.80067,-4.71807 1.20264,-1.90161 2.64513,-3.05994 1.41577,-1.11607 2.33494,-1.54048 l -8.78969,-5.5589 2.48548,-3.93001 29.11583,18.41388 q -0.54388,1.60832 -1.4731,3.9195 -0.9137,2.38016 -2.65086,5.12693 -1.60353,2.53549 -3.68925,4.05609 -2.08573,1.52061 -4.47343,2.02199 -2.3877,0.50138 -5.02393,-0.10097 -2.62069,-0.53337 -5.28295,-2.21708 z" />
          <path
             id="path3385"
             style="font-style:normal;font-variant:normal;font-weight:normal;font-stretch:normal;font-size:50px;font-family:Ubuntu;-inkscape-font-specification:Ubuntu;word-spacing:0px"
             d="m 408.10936,1007.4541 q 1.04786,0.3383 2.77478,0.3544 1.72691,0.016 3.49377,-0.6827 1.85984,-0.7356 2.93241,-1.9662 1.04446,-1.1658 1.40331,-2.7057 0.37724,-1.4934 0.10563,-3.26787 -0.2716,-1.77447 -1.00711,-3.63431 -1.67329,-4.23115 -4.685,-5.72851 -2.99333,-1.45086 -6.48054,-0.0718 -1.76685,0.69873 -2.87409,1.29792 -1.13535,0.66406 -1.71275,1.10748 l 6.04959,15.29726 z m 6.43572,16.2736 -4.02993,2.454 -13.99311,-35.38354 q 1.32239,-1.00688 3.4817,-2.34473 2.15932,-1.33786 5.18157,-2.53306 2.78976,-1.10327 5.37095,-1.10246 2.58118,8.2e-4 4.80562,1.003 2.22444,1.00218 4.02725,2.97761 1.77471,2.04033 2.93314,4.96958 1.10327,2.78977 1.32522,5.39039 0.17545,2.61901 -0.55748,4.84451 -0.73292,2.2255 -2.3645,3.9461 -1.67807,1.739 -4.28185,2.7687 -2.09233,0.8274 -3.89385,0.8947 -1.84802,0.086 -2.84072,-0.1133 l 4.83599,12.2285 z" />
          <path
             id="path3387"
             style="font-style:normal;font-variant:normal;font-weight:normal;font-stretch:normal;font-size:50px;font-family:Ubuntu;-inkscape-font-specification:Ubuntu;word-spacing:0px"
             d="m 378.98911,998.00558 q -1.64816,0.0779 -2.89441,0.18678 -1.29383,0.16123 -2.13345,0.40111 l 0.36568,7.74133 q 0.51124,0.2262 1.66703,0.3217 1.10822,0.1479 2.70643,0.072 1.04883,-0.049 2.24042,-0.256 1.14164,-0.2041 2.11694,-0.7507 0.92771,-0.4943 1.53688,-1.374 0.61152,-0.8298 0.54783,-2.1783 -0.11796,-2.49723 -1.76337,-3.42063 -1.64304,-0.87344 -4.38998,-0.74369 z m 1.49895,23.25522 q -2.79689,0.1321 -4.73016,-0.5274 -1.98085,-0.6073 -3.19327,-1.9015 -1.26,-1.2419 -1.84674,-3.0663 -0.58437,-1.7744 -0.68818,-3.9719 l -0.76674,-16.23192 q 0.59462,-0.1282 1.68395,-0.37988 1.04176,-0.19938 2.38318,-0.41291 1.34141,-0.21353 2.93491,-0.38891 1.5412,-0.22297 3.08947,-0.2961 2.19755,-0.10381 4.06673,0.2584 1.86917,0.36221 3.26249,1.24745 1.39568,0.93519 2.22034,2.49802 0.82466,1.56283 0.93082,3.81035 0.10145,2.1476 -0.67447,3.736 -0.82586,1.5907 -2.27937,2.6104 -1.4535,1.0197 -3.43004,1.5636 -1.97654,0.5439 -4.17409,0.6477 -0.69922,0.033 -1.4531,-0.032 -0.75153,-0.015 -1.40788,-0.1337 -0.70394,-0.067 -1.2081,-0.1432 -0.50416,-0.076 -0.7063,-0.1168 l 0.0613,1.2986 q 0.0543,1.1487 0.35588,2.2357 0.30399,1.1369 0.99337,1.9553 0.69174,0.8683 1.86405,1.3135 1.12473,0.4975 2.92272,0.4125 2.29744,-0.1085 4.02898,-0.5407 1.68395,-0.3798 2.51649,-0.7696 l 0.73105,3.8198 q -0.88013,0.442 -2.96128,0.8907 -2.07878,0.4987 -4.52605,0.6143 z" />
          <path
             id="path3389"
             style="font-style:normal;font-variant:normal;font-weight:normal;font-stretch:normal;font-size:50px;font-family:Ubuntu;-inkscape-font-specification:Ubuntu;word-spacing:0px"
             d="m 348.22737,1016.9179 -9.40555,-2.9254 1.15828,-3.724 9.40556,2.9254 3.56395,-11.4586 q 0.57915,-1.86198 0.67878,-3.19242 0.0848,-1.2827 -0.2654,-2.17705 -0.36503,-0.84662 -1.13532,-1.40038 -0.77029,-0.55376 -1.91614,-0.91015 -2.00525,-0.6237 -3.3325,-0.56525 -1.38984,0.0914 -1.92668,0.13383 l 0.28405,-3.94358 q 0.77236,-0.12631 2.5919,-0.084 1.83439,-0.005 3.98286,0.6628 2.53043,0.78705 4.00842,1.92746 1.4154,1.17331 2.01707,2.77424 0.60168,1.60093 0.45223,3.5966 -0.21204,2.02851 -0.98423,4.51121 l -6.89032,22.1532 -4.67778,-0.6171 2.39082,-7.6868 z" />
          <path
             id="path3391"
             style="font-style:normal;font-variant:normal;font-weight:normal;font-stretch:normal;font-size:50px;font-family:Ubuntu;-inkscape-font-specification:Ubuntu;word-spacing:0px"
             d="m 331.30428,996.09233 q -2.18556,2.66943 -4.57472,4.00897 -2.42084,1.3783 -4.77446,1.6484 -2.35363,0.2701 -4.55565,-0.4343 -2.20203,-0.7043 -3.94296,-2.12968 -4.06216,-3.32586 -4.13811,-7.65301 -0.10763,-4.28846 4.1368,-9.47256 0.19005,-0.23212 0.5068,-0.61899 0.28507,-0.34819 0.57716,-0.62601 l 13.77267,11.27623 q 2.33354,-3.32372 2.0777,-6.24725 -0.25584,-2.92353 -3.62163,-5.67924 -1.89568,-1.55207 -3.42576,-2.28784 -1.60044,-0.72876 -2.51152,-0.95773 l 1.9677,-3.42938 q 0.94276,0.19028 2.92306,1.16543 1.94161,0.94347 4.03073,2.65391 2.63073,2.15389 3.9316,4.51137 1.23051,2.3645 1.32821,4.77084 0.0977,2.40633 -0.83537,4.80881 -1.00344,2.40948 -2.87225,4.69203 z m -15.42678,-9.33485 q -2.0342,2.40562 -2.02451,4.99838 -0.0607,2.59977 2.1445,4.40524 1.23799,1.01359 2.61695,1.30253 1.30859,0.29595 2.59977,0.0607 1.29118,-0.23527 2.5016,-0.92439 1.17173,-0.7208 2.14301,-1.67033 l -9.98132,-8.1721 z" />
          <path
             id="path3393"
             style="font-style:normal;font-variant:normal;font-weight:normal;font-stretch:normal;font-size:50px;font-family:Ubuntu;-inkscape-font-specification:Ubuntu;word-spacing:0px"
             d="m 303.24842,974.53935 -6.34581,-10.59497 3.73183,-2.23516 6.34581,10.59496 -3.73183,2.23517 z" />
          <path
             id="path3395"
             style="font-style:normal;font-variant:normal;font-weight:normal;font-stretch:normal;font-size:50px;font-family:Ubuntu;-inkscape-font-specification:Ubuntu;word-spacing:0px"
             d="m 289.71615,961.80523 -4.0609,-0.14705 2.6043,-23.31309 3.83361,-1.14169 14.93447,18.08989 -3.31881,2.3448 -12.06255,-14.92807 -1.93012,19.09521 z" />
        </g>
      </g>
      <g
         transform="matrix(1.1514793,0,0,1.1389016,311.25183,860.34825)"
         id="g3372">
        <path
           style="fill:url(#linearGradient1478);fill-opacity:1"
           d="M 54.918785,9.1918365e-4 C 50.335132,0.02221918 45.957846,0.41313718 42.106285,1.0946692 30.760069,3.0991732 28.700036,7.2947712 28.700035,15.032169 l 0,10.21875 26.8125,0 0,3.40625 -26.8125,0 -10.0625,0 c -7.792459,0 -14.615759,4.683717 -16.75,13.59375 -2.46181971,10.212966 -2.57101481,16.586023 0,27.25 1.905929,7.937852 6.457543,13.593748 14.25,13.59375 l 9.21875,0 0,-12.25 c 0,-8.849902 7.657144,-16.656248 16.75,-16.65625 l 26.78125,0 c 7.454951,0 13.406253,-6.138164 13.40625,-13.625 l 0,-25.53125 c 0,-7.2663388 -6.12998,-12.7247768 -13.40625,-13.9374998 C 64.281548,0.32794418 59.502438,-0.02037802 54.918785,9.1918365e-4 Z m -14.5,8.21875001635 c 2.769547,0 5.03125,2.2986458 5.03125,5.1249998 -2e-6,2.816336 -2.261703,5.09375 -5.03125,5.09375 -2.779476,-1e-6 -5.03125,-2.277415 -5.03125,-5.09375 -10e-7,-2.826353 2.251774,-5.1249998 5.03125,-5.1249998 z"
           id="path1948" />
        <path
           style="fill:url(#linearGradient1475);fill-opacity:1"
           d="m 85.637535,28.65717 0,11.90625 c 0,9.230755 -7.825895,16.999999 -16.75,17 l -26.78125,0 c -7.335833,0 -13.406249,6.278483 -13.40625,13.625 l 0,25.53124 c 0,7.26634 6.318588,11.54032 13.40625,13.625 8.487331,2.49561 16.626237,2.94663 26.78125,0 6.750155,-1.95439 13.406253,-5.88761 13.40625,-13.625 l 0,-10.21874 -26.78125,0 0,-3.40625 26.78125,0 13.406255,0 c 7.79246,0 10.69625,-5.435408 13.40624,-13.59375 2.79933,-8.398886 2.68022,-16.475776 0,-27.25 -1.92578,-7.757441 -5.60387,-13.59375 -13.40624,-13.59375 l -10.062505,0 z m -15.0625,64.65625 c 2.779478,0 5.03125,2.27741 5.03125,5.09374 -2e-6,2.82635 -2.251775,5.125 -5.03125,5.125 -2.76955,0 -5.03125,-2.29865 -5.03125,-5.125 2e-6,-2.81633 2.261697,-5.09374 5.03125,-5.09374 z"
           id="path1950" />
      </g>
    </g>
    <path
       transform="translate(0,796.36216)"
       id="path4170"
       d="m 25.294317,131.37856 0.255553,-86.225858 7.5,-1.756677 c 21.828832,-5.112826 48.682363,-6.309654 62.590037,-2.78956 11.879123,3.006657 19.848333,7.431147 27.909963,15.495547 12.07894,12.083093 17.46697,25.429776 18.27274,45.263368 1.4685,36.14637 -12.23645,60.84264 -38.77274,69.86834 -4.311542,1.46647 -8.309082,1.85786 -18.5,1.81128 -12.050601,-0.0551 -13.602503,-0.28733 -21.25,-3.18015 l -8.25,-3.12072 0,25.43014 0,25.43015 -15.005553,0 -15.005554,0 0.255554,-86.22586 z m 69.4452,13.62992 C 105.52804,139.61629 112.07138,125.30817 112.03251,107.19446 111.98657,85.793268 104.25266,71.407508 89.941265,66.102807 85.658912,64.515498 82.0814,64.104418 72.54987,64.104418 c -6.6,0 -13.2375,0.346073 -14.75,0.769052 l -2.75,0.769052 0,37.797078 0,37.79708 5.75,2.6938 c 7.881464,3.69235 12.521969,4.64223 20.939647,4.28617 5.521385,-0.23355 8.537861,-0.97796 13,-3.20817 z"
       style="opacity:1;fill:#ffdf57;fill-opacity:1" />
    <path
       transform="translate(0,796.36216)"
       id="path4172"
       d="m 165.04987,216.91461 c -4.27446,-0.71374 -13,-3.33836 -13,-3.91036 0,-0.84142 5.11343,-22.84659 5.36814,-23.10131 0.12385,-0.12384 2.4132,0.43332 5.08745,1.23815 6.37097,1.91738 18.00801,1.86544 23.79447,-0.10621 5.50364,-1.87528 12.38604,-8.80543 16.1798,-16.29204 l 2.59812,-5.12716 -3.96612,-7.88822 C 184.74788,129.18136 168.8335,89.056201 158.12899,53.354418 l -3.82285,-12.75 15.7204,0 15.7204,0 2.28276,8.75 c 7.78311,29.833236 28.95111,88.805062 31.06859,86.553822 2.2021,-2.34119 17.55236,-54.248924 25.22624,-85.303822 l 2.34751,-9.5 15.18891,-0.276046 c 8.35391,-0.151825 15.18892,0.02476 15.18892,0.39242 0,0.367657 -2.06313,7.916877 -4.58473,16.776046 -10.77616,37.859928 -31.05774,94.067902 -43.37255,120.201772 -10.95693,23.25226 -21.79398,34.01404 -38.12935,37.86453 -5.89714,1.39004 -19.92713,1.85104 -25.91337,0.85147 z"
       style="opacity:1;fill:#4383b6;fill-opacity:1" />
  </g>
</svg>
